<svg xmlns="http://www.w3.org/2000/svg" shape-rendering="crispEdges" viewBox="0 0 97 18" width="485px" height="90px" class="svg" id="svg--contact">
    <polygon class="pixel--black" points="0,1 1,1 1,5 4,5 4,6 0,6"></polygon>
    <polygon class="pixel--black" points="5,1 6,1 6,6 8,6 8,1 9,1 9,5 5,5"></polygon>
    <polygon class="pixel--black" points="11,1 14,1 14,2 10,2 10,5 14,5 14,6 11,6"></polygon>
    <polygon class="pixel--black" points="15,2 15,6 16,6 16,4 18,4 18,6 19,6 19,2 18,2 18,3 16,3 16,1 18,1 18,2"></polygon>
    <polygon class="pixel--black" points="21,1 24,1 24,2 20,2 20,3 23,3 23,6 20,6 20,5 24,5 24,4 21,4"></polygon>
    <polygon class="pixel--black" points="29,4 29,3 28,3 28,4 30,4 30,5 27,5 27,2 29,2 29,4 30,4 30,1 29,1 29,0 26,0 26,7 30,7 30,6 25,6 25,1 29,1"></polygon>
    <polygon class="pixel--black" points="32,2 32,1 34,1 34,2 31,2 31,5 32,5 32,2 32,5 34,5 34,6 32,6 32,5 35,5 35,2 34,2 34,5 32,5"></polygon>
    <polygon class="pixel--black" points="39,1 39,2 36,2 36,2 36,5 40,5 40,3 38,3 38,4 39,4 39,6 37,6 37,1"></polygon>
    <polygon class="pixel--black" points="41,1 44,1 44,5 45,5 45,2 41,2 41,6 44,6 44,5 42,5 42,2 41,2"></polygon>
    <polygon class="pixel--black" points="50,2 50,1 46,1 46,6 50,6 50,5 47,5 47,4 49,4 49,3 47,3 47,2"></polygon>
    <polygon class="pixel--black" points="51,1 51,6 52,6 52,3 54,3 54,1 55,1 55,6 54,6 54,4 53,4 53,2 52,2 52,1"></polygon>
    <polygon class="pixel--black" points="56,1 59,1 59,5 60,5 60,2 56,2 56,6 59,6 59,5 57,5 57,2 56,2"></polygon>
    <polygon class="pixel--black" points="61,2 61,6 62,6 62,4 64,4 64,6 65,6 65,2 64,2 64,3 62,3 62,1 64,1 64,2"></polygon>
    <polygon class="pixel--black" points="66,1 67,1 67,6 68,6 68,1 69,1 69,5 66,5"></polygon>
    <polygon class="pixel--black" points="70,1 73,1 73,2 72,2 72,5 73,5 73,6 70,6 70,5 71,5 71,2 70,2"></polygon>
    <polygon class="pixel--black" points="75,1 78,1 78,2 74,2 74,3 77,3 77,6 74,6 74,5 78,5 78,4 75,4"></polygon>
    <polygon class="pixel--black" points="79,4 81,4 81,6 79,6"></polygon>
    <polygon class="pixel--black" points="83,1 86,1 86,2 82,2 82,5 86,5 86,6 83,6"></polygon>
    <polygon class="pixel--black" points="88,2 88,1 90,1 90,2 87,2 87,5 88,5 88,2 88,5 90,5 90,6 88,6 88,5 91,5 91,2 90,2 90,5 88,5"></polygon>
    <polygon class="pixel--black" points="93,1 92,1 92,6 93,6 93,3 96,3 96,6 97,6 97,1 96,1 96,2 95,2 95,4 94,4 94,2 93,2"></polygon>
    <polygon class="pixel--black" points="0,12 3,12"></polygon>
    <polygon class="pixel--black" points="4,12 7,12"></polygon>
    <polygon class="pixel--black" points="8,12 11,12"></polygon>
    <polygon class="pixel--black" points="12,12 15,12"></polygon>
    <polygon class="pixel--black" points="16,12 19,12"></polygon>
    <polygon class="pixel--black" points="20,12 24,12 24,14 22,14 22,17 21,17 21,15 23,15 23,13 20,13"></polygon>
    <polygon class="pixel--black" points="25,12 29,12 29,15 26,15 26,16 29,16 29,17 25,17 25,14 28,14 28,13 25,13"></polygon>
    <polygon class="pixel--black" points="30,12 34,12 34,13 30,13 30,17 31,17 31,13 34,13 34,17 31,17 31,16 33,16 33,13 30,13"></polygon>
    <polygon class="pixel--black" points="35,14 38,14 38,15 35,15"></polygon>
    <polygon class="pixel--black" points="39,12 43,12 43,14 41,14 41,17 40,17 40,15 42,15 42,13 39,13"></polygon>
    <polygon class="pixel--black" points="44,12 48,12 48,14 46,14 46,17 45,17 45,15 47,15 47,13 44,13"></polygon>
    <polygon class="pixel--black" points="49,12 53,12 53,15 50,15 50,16 53,16 53,17 49,17 49,14 52,14 52,13 49,13"></polygon>
    <polygon class="pixel--black" points="54,14 57,14 57,15 54,15"></polygon>
    <polygon class="pixel--black" points="58,12 62,12 62,13 58,13 58,17 62,17 62,16 59,16 59,13 61,13 61,14 59,14 59,15 61,15 61,17 62,17 62,12 58,12 58,12 58,13 62,13 62,12"></polygon>
    <polygon class="pixel--black" points="63,12 67,12 67,15 64,15 64,16 67,16 67,17 63,17 63,14 66,14 66,13 63,13"></polygon>
    <polygon class="pixel--black" points="71,14 71,15 68,15 68,12 72,12 72,17 71,17 71,13 69,13 69,14"></polygon>
    <polygon class="pixel--black" points="74,15 74,14 77,14 77,17 73,17 73,12 76,12 76,13 74,13 74,16 76,16 76,15"></polygon>
</svg>
