<svg xmlns="http://www.w3.org/2000/svg" width="192px" height="320px" viewBox="0 0 240 400">
  <!-- In units of 10 per grid pixel. Offset of 10 from top and left -->
  <g class="lucas__head">
    <polygon class="pixel--brown" points="90,10 150,10, 150,20 160,20 160,40 100,40 100,50 80,50 80,60 70,60 70,30 80,30 80,20 80,10" />
    <rect class="pixel--light-brown" x="160" y="30" width="10" height="10" />
    <polygon class="pixel--skin" points="100,40 170,40 170,60 180,60 180,80 160,80 160,100 150,100 150,90 90,90 90,100 80,100 80,80 60,80 60,60 80,60 80,50 100,50" />
    <rect class="pixel--black" x="90" y="60" width="10" height="20" />
    <rect class="pixel--black" x="140" y="60" width="10" height="20" />
    <polygon class="pixel--stubble" points="" />
  </g>
</svg>
