<svg xmlns="http://www.w3.org/2000/svg" viewBox="0 0 80 100" shape-rendering="crispEdges" id="svg--sylvie" class="svg">
  <!-- In units of 10 per grid pixel. No offset -->
  <polygon class="pixel--yellow" points="0,20 50,20 50,50 40,50 40,60 50,60 50,100 0,100 0,60 10,60 10,50 0,50" />
  <polygon class="pixel--gold" points="0,0 10,0 10,10 20,10 20,20 0,20" />
  <polygon class="pixel--gold" points="40,0 50,0 50,20 30,20 30,10 40,10" />
  <polygon class="pixel--gold" points="10,80 20,80 20,100 10,100" />
  <polygon class="pixel--gold" points="30,80 40,80 40,100 30,100" />
  <polygon class="pixel--gold" points="50,90 70,90 70,70 60,70 60,60 80,60 80,100 50,100" />
  <polygon class="pixel--black" points="10,30 20,30 20,40 10,40" />
  <polygon class="pixel--black" points="30,30 40,30 40,40 30,40" />
  <polygon class="pixel--black" points="20,40 30,40 30,50 20,50" />
</svg>
